HIERARCHY
ROOT Root
{
  OFFSET 0.0 0.0 0.0
  CHANNELS 6 Xposition Yposition Zposition Zrotation Yrotation Xrotation
  JOINT Hips
  {
    OFFSET 0.0 100.0 0.0
    CHANNELS 6 Xposition Yposition Zposition Zrotation Yrotation Xrotation
    JOINT Spine1
    {
      OFFSET 5.003913 -0.037094 -0.013727
      CHANNELS 3 Zrotation Yrotation Xrotation
      JOINT Spine2
      {
        OFFSET 7.125363 -1e-06 0.0
        CHANNELS 3 Zrotation Yrotation Xrotation
        JOINT Chest
        {
          OFFSET 7.594027 1e-06 0.0
          CHANNELS 3 Zrotation Yrotation Xrotation
          JOINT Neck1
          {
            OFFSET 26.313086 -0.460272 -0.181672
            CHANNELS 3 Zrotation Yrotation Xrotation
            JOINT Neck2
            {
              OFFSET 8.045911 0.0 0.0
              CHANNELS 3 Zrotation Yrotation Xrotation
              JOINT Head
              {
                OFFSET 6.432774 0.0 0.0
                CHANNELS 3 Zrotation Yrotation Xrotation
                JOINT HeadEnd
                {
                  OFFSET 16.169773 0.06451 0.00362
                  CHANNELS 3 Zrotation Yrotation Xrotation
                }
                JOINT Jaw
                {
                  OFFSET 0.108741 3.12938 0.002639
                  CHANNELS 3 Zrotation Yrotation Xrotation
                }
                JOINT LeftEye
                {
                  OFFSET 4.45173 8.166359 3.206392
                  CHANNELS 3 Zrotation Yrotation Xrotation
                }
                JOINT RightEye
                {
                  OFFSET 4.436895 8.135758 -3.222429
                  CHANNELS 3 Zrotation Yrotation Xrotation
                }
              }
            }
          }
          JOINT LeftShoulder
          {
            OFFSET 23.218927 5.195579 1.621656
            CHANNELS 3 Zrotation Yrotation Xrotation
            JOINT LeftArm
            {
              OFFSET 15.902118 2e-06 -2e-06
              CHANNELS 3 Zrotation Yrotation Xrotation
              JOINT LeftForeArm
              {
                OFFSET 28.739307 0.0 -1e-06
                CHANNELS 3 Zrotation Yrotation Xrotation
                JOINT LeftHand
                {
                  OFFSET 27.093981 -4e-06 0.0
                  CHANNELS 3 Zrotation Yrotation Xrotation
                  JOINT LeftHandThumb1
                  {
                    OFFSET 2.276781 3.380274 0.83384
                    CHANNELS 3 Zrotation Yrotation Xrotation
                    JOINT LeftHandThumb2
                    {
                      OFFSET 4.705309 -1e-06 -1e-06
                      CHANNELS 3 Zrotation Yrotation Xrotation
                      JOINT LeftHandThumb3
                      {
                        OFFSET 2.798515 0.0 3e-06
                        CHANNELS 3 Zrotation Yrotation Xrotation
                        JOINT LeftHandThumbEnd
                        {
                          OFFSET 3.180793 4e-06 -4e-06
                          CHANNELS 3 Zrotation Yrotation Xrotation
                        }
                      }
                    }
                  }
                  JOINT LeftHandIndex1
                  {
                    OFFSET 3.247786 2.352677 0.137192
                    CHANNELS 3 Zrotation Yrotation Xrotation
                    JOINT LeftHandIndex2
                    {
                      OFFSET 6.367095 1e-06 0.0
                      CHANNELS 3 Zrotation Yrotation Xrotation
                      JOINT LeftHandIndex3
                      {
                        OFFSET 3.662364 0.0 0.0
                        CHANNELS 3 Zrotation Yrotation Xrotation
                        JOINT LeftHandIndex4
                        {
                          OFFSET 2.329242 4e-06 -4e-06
                          CHANNELS 3 Zrotation Yrotation Xrotation
                          JOINT LeftHandIndexEnd
                          {
                            OFFSET 2.767823 1e-06 0.0
                            CHANNELS 3 Zrotation Yrotation Xrotation
                          }
                        }
                      }
                    }
                  }
                  JOINT LeftHandMiddle1
                  {
                    OFFSET 3.163612 0.945023 -0.406112
                    CHANNELS 3 Zrotation Yrotation Xrotation
                    JOINT LeftHandMiddle2
                    {
                      OFFSET 6.276789 3e-06 0.0
                      CHANNELS 3 Zrotation Yrotation Xrotation
                      JOINT LeftHandMiddle3
                      {
                        OFFSET 4.35652 -1e-06 4e-06
                        CHANNELS 3 Zrotation Yrotation Xrotation
                        JOINT LeftHandMiddle4
                        {
                          OFFSET 2.996877 0.0 8e-06
                          CHANNELS 3 Zrotation Yrotation Xrotation
                          JOINT LeftHandMiddleEnd
                          {
                            OFFSET 2.323256 3e-06 -4e-06
                            CHANNELS 3 Zrotation Yrotation Xrotation
                          }
                        }
                      }
                    }
                  }
                  JOINT LeftHandRing1
                  {
                    OFFSET 2.882606 -0.309162 0.107445
                    CHANNELS 3 Zrotation Yrotation Xrotation
                    JOINT LeftHandRing2
                    {
                      OFFSET 6.033198 0.0 4e-06
                      CHANNELS 3 Zrotation Yrotation Xrotation
                      JOINT LeftHandRing3
                      {
                        OFFSET 4.350578 3e-06 0.0
                        CHANNELS 3 Zrotation Yrotation Xrotation
                        JOINT LeftHandRing4
                        {
                          OFFSET 2.651321 2e-06 -7e-06
                          CHANNELS 3 Zrotation Yrotation Xrotation
                          JOINT LeftHandRingEnd
                          {
                            OFFSET 1.937663 1e-06 -4e-06
                            CHANNELS 3 Zrotation Yrotation Xrotation
                          }
                        }
                      }
                    }
                  }
                  JOINT LeftHandPinky1
                  {
                    OFFSET 2.865315 -1.525436 0.575687
                    CHANNELS 3 Zrotation Yrotation Xrotation
                    JOINT LeftHandPinky2
                    {
                      OFFSET 5.54936 1e-06 -8e-06
                      CHANNELS 3 Zrotation Yrotation Xrotation
                      JOINT LeftHandPinky3
                      {
                        OFFSET 3.070974 0.0 -4e-06
                        CHANNELS 3 Zrotation Yrotation Xrotation
                        JOINT LeftHandPinky4
                        {
                          OFFSET 1.549672 1e-06 0.0
                          CHANNELS 3 Zrotation Yrotation Xrotation
                          JOINT LeftHandPinkyEnd
                          {
                            OFFSET 1.952123 0.0 0.0
                            CHANNELS 3 Zrotation Yrotation Xrotation
                          }
                        }
                      }
                    }
                  }
                }
              }
            }
          }
          JOINT RightShoulder
          {
            OFFSET 23.161716 5.296122 -1.380114
            CHANNELS 3 Zrotation Yrotation Xrotation
            JOINT RightArm
            {
              OFFSET -16.027195 -2e-06 1.1e-05
              CHANNELS 3 Zrotation Yrotation Xrotation
              JOINT RightForeArm
              {
                OFFSET -28.736639 4e-06 2e-06
                CHANNELS 3 Zrotation Yrotation Xrotation
                JOINT RightHand
                {
                  OFFSET -27.133619 6e-06 0.0
                  CHANNELS 3 Zrotation Yrotation Xrotation
                  JOINT RightHandThumb1
                  {
                    OFFSET -2.274328 -3.351035 -0.83067
                    CHANNELS 3 Zrotation Yrotation Xrotation
                    JOINT RightHandThumb2
                    {
                      OFFSET -4.703594 -3e-06 2e-06
                      CHANNELS 3 Zrotation Yrotation Xrotation
                      JOINT RightHandThumb3
                      {
                        OFFSET -2.794935 -4e-06 -3e-06
                        CHANNELS 3 Zrotation Yrotation Xrotation
                        JOINT RightHandThumbEnd
                        {
                          OFFSET -3.183852 4e-06 1e-06
                          CHANNELS 3 Zrotation Yrotation Xrotation
                        }
                      }
                    }
                  }
                  JOINT RightHandIndex1
                  {
                    OFFSET -3.253496 -2.33755 -0.127667
                    CHANNELS 3 Zrotation Yrotation Xrotation
                    JOINT RightHandIndex2
                    {
                      OFFSET -6.344434 0.0 0.0
                      CHANNELS 3 Zrotation Yrotation Xrotation
                      JOINT RightHandIndex3
                      {
                        OFFSET -3.654871 0.0 -8e-06
                        CHANNELS 3 Zrotation Yrotation Xrotation
                        JOINT RightHandIndex4
                        {
                          OFFSET -2.327586 -1e-06 0.0
                          CHANNELS 3 Zrotation Yrotation Xrotation
                          JOINT RightHandIndexEnd
                          {
                            OFFSET -2.770001 3e-06 8e-06
                            CHANNELS 3 Zrotation Yrotation Xrotation
                          }
                        }
                      }
                    }
                  }
                  JOINT RightHandMiddle1
                  {
                    OFFSET -3.168223 -0.944764 0.411762
                    CHANNELS 3 Zrotation Yrotation Xrotation
                    JOINT RightHandMiddle2
                    {
                      OFFSET -6.266691 -1e-06 -4e-06
                      CHANNELS 3 Zrotation Yrotation Xrotation
                      JOINT RightHandMiddle3
                      {
                        OFFSET -4.348901 0.0 0.0
                        CHANNELS 3 Zrotation Yrotation Xrotation
                        JOINT RightHandMiddle4
                        {
                          OFFSET -3.00024 2e-06 -4e-06
                          CHANNELS 3 Zrotation Yrotation Xrotation
                          JOINT RightHandMiddleEnd
                          {
                            OFFSET -2.321477 -4e-06 -4e-06
                            CHANNELS 3 Zrotation Yrotation Xrotation
                          }
                        }
                      }
                    }
                  }
                  JOINT RightHandRing1
                  {
                    OFFSET -2.885654 0.293261 -0.119232
                    CHANNELS 3 Zrotation Yrotation Xrotation
                    JOINT RightHandRing2
                    {
                      OFFSET -6.032835 -1e-06 -4e-06
                      CHANNELS 3 Zrotation Yrotation Xrotation
                      JOINT RightHandRing3
                      {
                        OFFSET -4.33881 0.0 -4e-06
                        CHANNELS 3 Zrotation Yrotation Xrotation
                        JOINT RightHandRing4
                        {
                          OFFSET -2.654903 -4e-06 -4e-06
                          CHANNELS 3 Zrotation Yrotation Xrotation
                          JOINT RightHandRingEnd
                          {
                            OFFSET -1.935122 0.0 4e-06
                            CHANNELS 3 Zrotation Yrotation Xrotation
                          }
                        }
                      }
                    }
                  }
                  JOINT RightHandPinky1
                  {
                    OFFSET -2.866241 1.503904 -0.60527
                    CHANNELS 3 Zrotation Yrotation Xrotation
                    JOINT RightHandPinky2
                    {
                      OFFSET -5.553177 -2e-06 0.0
                      CHANNELS 3 Zrotation Yrotation Xrotation
                      JOINT RightHandPinky3
                      {
                        OFFSET -3.062664 -1e-06 -4e-06
                        CHANNELS 3 Zrotation Yrotation Xrotation
                        JOINT RightHandPinky4
                        {
                          OFFSET -1.546529 2e-06 4e-06
                          CHANNELS 3 Zrotation Yrotation Xrotation
                          JOINT RightHandPinkyEnd
                          {
                            OFFSET -1.952341 0.0 -4e-06
                            CHANNELS 3 Zrotation Yrotation Xrotation
                          }
                        }
                      }
                    }
                  }
                }
              }
            }
          }
        }
      }
    }
    JOINT LeftLeg
    {
      OFFSET -8.443107 2.567604 10.043214
      CHANNELS 3 Zrotation Yrotation Xrotation
      JOINT LeftShin
      {
        OFFSET 43.229198 1e-06 -1e-06
        CHANNELS 3 Zrotation Yrotation Xrotation
        JOINT LeftFoot
        {
          OFFSET 42.298611 1e-06 1e-06
          CHANNELS 3 Zrotation Yrotation Xrotation
          JOINT LeftToeBase
          {
            OFFSET 14.165858 1e-06 0.0
            CHANNELS 3 Zrotation Yrotation Xrotation
            JOINT LeftToeEnd
            {
              OFFSET 6.7141 -0.234461 0.0
              CHANNELS 3 Zrotation Yrotation Xrotation
            }
          }
        }
      }
    }
    JOINT RightLeg
    {
      OFFSET -8.303923 2.592729 -10.047278
      CHANNELS 3 Zrotation Yrotation Xrotation
      JOINT RightShin
      {
        OFFSET -43.369682 0.0 1e-06
        CHANNELS 3 Zrotation Yrotation Xrotation
        JOINT RightFoot
        {
          OFFSET -42.260784 4e-06 2e-06
          CHANNELS 3 Zrotation Yrotation Xrotation
          JOINT RightToeBase
          {
            OFFSET -14.222245 -2e-06 -1e-06
            CHANNELS 3 Zrotation Yrotation Xrotation
            JOINT RightToeEnd
            {
              OFFSET -6.660062 0.232574 -2e-06
              CHANNELS 3 Zrotation Yrotation Xrotation
            }
          }
        }
      }
    }
  }
}
MOTION
Frames: 4
Frame Time: 0.03333333333333333
0.0 0.0 0.0 0.0 -0.0 0.0 0.76254 99.890388 6.248745 89.855835 2.25223 90.032341 -1.9901 0.369398 -0.0513 -11.203812 -0.304439 0.58785 16.213924 -0.664643 -1.452496 20.578453 2.08011 2.551731 -2.41014 -0.683051 -1.40775 -29.095551 0.889808 -2.406792 6e-06 0.0 -0.0 0.055218 -0.002531 -0.01159 0.080001 0.028922 -0.007734 0.069495 -0.032625 -0.009577 -127.373276 -72.931282 139.997574 32.804306 -55.776619 14.030261 28.428169 -0.156604 -0.034584 -0.653934 1.03031 12.203795 17.636787 -26.322834 52.411362 -19.466837 -14.395667 29.410566 9e-06 -8.774917 -8e-06 16.003363 -18.150581 6.088079 -0.609781 -1.79567 -3.889347 -4.807145 -11.046931 -2.93787 -1.1e-05 -20.976301 -1.6e-05 -5.020041 -25.034014 -4.031971 4e-06 3e-06 2e-06 -10.634618 -5.687029 -3.565598 10.573352 -17.923126 -3.113929 -5e-06 -13.821392 -1.9e-05 -0.501775 -31.182093 -4.027131 -11.125628 -59.507942 7.058335 -13.98282 -7.15027 -2.875042 13.772841 -8.401564 -3.218264 0.347731 -34.212048 0.771618 -0.963031 -17.733675 2.621035 0.0 -3e-06 -1e-06 -17.346577 -20.095407 -4.201777 21.757755 -1.638369 3.866472 -3e-06 -6.338905 -9e-06 -1.697616 -22.592157 -6.19414 2e-06 -5e-06 -2e-06 36.922352 -73.810318 158.569016 29.847845 -46.905884 26.112108 50.23455 -0.227419 0.413535 -0.759838 -8.72116 14.309365 22.182213 -20.375807 49.9333 -16.701937 -16.743551 28.476562 -1.2e-05 -12.69067 -1.8e-05 16.086166 -18.237553 2.823817 -0.105918 -1.513871 -4.275887 -5.039067 -5.612902 -2.953566 1.3e-05 -11.020594 -2.1e-05 -6.111317 -15.895464 -3.840513 -3e-06 2e-06 2e-06 -10.283407 -5.680322 -4.341838 11.028348 -11.302466 -2.372654 -1.384268 -14.238676 -6.32016 -0.625382 -26.924431 -3.827668 -4.566406 -50.138325 -4.128756 -13.70858 -7.363514 -3.720938 18.141243 -14.052818 -3.242699 4.2e-05 -18.78739 -4.3e-05 -0.429686 -8.456112 2.555506 3e-06 3e-06 0.0 -15.923603 -20.094587 -5.473594 30.419344 -7.190884 1.735943 1.8e-05 -8.162967 -2.1e-05 -1.861838 -22.861647 -6.168043 -5e-06 -3e-06 -3e-06 -174.772842 -5.446594 -10.717629 5.242342 -0.041104 -0.092985 -76.365349 -1.879209 -7.02939 -4.652313 1.537279 2.120263 -0.999999 0.0 -0.0 4.210611 -4.40675 -13.821083 5.39786 0.006823 -0.163695 -75.508286 -1.733103 -6.209864 -4.266199 0.709091 1.698934 -1.000007 2e-06 -1e-06 
0.0 0.0 0.0 0.0 -0.0 0.0 0.796994 99.93013 6.138084 89.835716 2.355745 89.83828 -1.953875 0.414181 -0.072429 -11.163199 -0.24943 0.633593 16.151876 -0.747144 -1.40795 20.634054 1.989247 2.666856 -2.423251 -0.662466 -1.541513 -28.977163 0.736801 -2.478539 6e-06 -0.0 0.0 0.039797 -0.008131 -0.01876 0.082211 0.018906 -0.014263 0.063921 -0.03354 -0.018777 -126.728065 -72.792671 139.390213 32.810677 -55.692566 13.727444 28.802355 -0.243808 -0.087987 -0.175891 1.488993 12.484305 17.636633 -26.322577 52.410995 -19.466637 -14.395542 29.410299 1.8e-05 -8.77483 -9e-06 16.023302 -18.205414 6.034822 -0.609781 -1.795656 -3.889316 -4.807115 -11.046829 -2.93785 -3.4e-05 -20.976051 -2.6e-05 -5.020001 -25.033684 -4.03195 6e-06 -2e-06 2e-06 -10.634543 -5.686993 -3.565575 10.573238 -17.922947 -3.113899 -1.5e-05 -13.82124 -2.4e-05 -0.501774 -31.181684 -4.027114 -11.23067 -59.466476 7.142314 -13.982726 -7.150226 -2.875026 13.772714 -8.401472 -3.21823 0.347697 -34.21162 0.771593 -0.963021 -17.73344 2.62098 -1e-06 0.0 2e-06 -17.346462 -20.095261 -4.201752 21.757568 -1.638332 3.866444 -6e-06 -6.338835 -1.2e-05 -1.697607 -22.591858 -6.194083 1e-06 -3e-06 2e-06 37.751385 -74.40493 157.777939 28.377911 -43.568722 26.827028 58.75774 -0.287134 0.462362 0.428323 -9.143885 14.085732 22.182108 -20.375814 49.933384 -16.701801 -16.743443 28.476545 1.4e-05 -12.690578 -1e-05 16.200409 -18.505774 2.802525 -0.105927 -1.513865 -4.275883 -5.039045 -5.612894 -2.953574 -7e-06 -11.020555 -1.9e-05 -6.111297 -15.895432 -3.840526 -1e-06 -0.0 1e-06 -10.283368 -5.680316 -4.341853 11.028258 -11.302409 -2.372635 -1.384281 -14.238627 -6.320165 -0.62542 -26.924314 -3.827696 -4.707313 -50.177322 -4.11829 -13.708518 -7.363513 -3.720958 18.141102 -14.052741 -3.242673 1e-06 -18.787317 -3.8e-05 -0.429716 -8.456078 2.555501 3e-06 -0.0 1e-06 -15.923536 -20.094551 -5.473615 30.419136 -7.190794 1.735958 -2e-06 -8.162933 -1.4e-05 -1.861873 -22.861546 -6.168026 2e-06 -3e-06 -0.0 -174.64537 -5.421558 -10.661712 5.227003 -0.016801 -0.070334 -76.435249 -2.139674 -7.162504 -4.686634 1.548831 2.121798 -0.999996 0.0 -0.0 4.314959 -4.42201 -13.689748 5.379251 0.018746 -0.123364 -75.51754 -1.560907 -6.106435 -4.248506 0.69871 1.701268 -1.000005 -1e-06 -1e-06 
0.0 0.0 0.0 0.0 -0.0 0.0 0.840767 99.922028 5.942072 89.830185 2.49141 89.637756 -1.926069 0.435199 -0.092688 -11.160712 -0.211984 0.679831 16.159712 -0.73054 -1.374697 20.852768 1.91751 2.755431 -2.475382 -0.661874 -1.715078 -28.680723 0.463662 -2.455822 6e-06 -0.0 -0.0 0.032107 -0.011585 -0.04657 0.063864 0.010709 -0.038931 0.039784 -0.032477 -0.05081 -126.057358 -72.724693 138.789978 32.513252 -55.639168 13.989038 29.509914 -0.176645 -0.107964 0.247213 1.91395 12.406317 17.636475 -26.322641 52.411171 -19.466343 -14.395442 29.410246 6.7e-05 -8.774755 -9e-06 15.977571 -18.272413 6.023028 -0.609791 -1.795643 -3.889311 -4.807137 -11.046781 -2.937827 -0.000165 -20.975897 2.4e-05 -5.020106 -25.033503 -4.031935 8e-06 -2e-06 3e-06 -10.634501 -5.687001 -3.565579 10.573062 -17.922783 -3.113826 -0.0001 -13.821139 -3e-06 -0.501972 -31.181406 -4.027092 -11.301604 -59.442036 7.142304 -13.982667 -7.150239 -2.875032 13.772571 -8.401355 -3.218188 0.347435 -34.211372 0.771705 -0.963144 -17.733318 2.620955 1e-06 2e-06 3e-06 -17.346428 -20.095217 -4.201742 21.75742 -1.638218 3.866462 -4.7e-05 -6.338794 3e-06 -1.697754 -22.591696 -6.194024 0.0 -5e-06 0.0 38.344967 -75.073776 157.064453 26.457979 -39.015873 26.367849 69.019753 -0.153664 0.449566 3.042032 -8.724739 14.078023 22.18206 -20.375832 49.933239 -16.701576 -16.743135 28.476326 2.8e-05 -12.690375 -4.6e-05 16.282051 -18.76318 2.822935 -0.10594 -1.513856 -4.27586 -5.038993 -5.612873 -2.953571 -2.3e-05 -11.020526 -0.0 -6.111211 -15.895392 -3.840499 -1e-06 0.0 1e-06 -10.283272 -5.680292 -4.341867 11.0281 -11.302379 -2.372564 -1.384271 -14.238584 -6.320127 -0.625479 -26.924232 -3.827645 -4.862352 -50.033527 -3.978198 -13.708378 -7.36348 -3.720988 18.140831 -14.052705 -3.242572 -1.5e-05 -18.78727 -2e-05 -0.429724 -8.456059 2.555494 -0.0 2e-06 1e-06 -15.923359 -20.094475 -5.473635 30.418688 -7.190757 1.73602 -1e-06 -8.162922 -9e-06 -1.861838 -22.861532 -6.167982 1e-06 -1e-06 -0.0 -174.534286 -5.368416 -10.626767 5.285522 -0.014227 -0.053963 -76.521797 -2.407282 -7.267503 -4.729842 1.550364 2.120254 -1.000003 2e-06 -1e-06 4.410775 -4.48875 -13.518914 5.385653 0.035945 -0.097291 -75.510628 -1.362769 -6.076808 -4.2491 0.726751 1.709203 -1.000002 -1e-06 -1e-06 
0.0 0.0 0.0 0.0 -0.0 0.0 0.878953 99.874817 5.722865 89.828987 2.628513 89.403748 -1.900496 0.438556 -0.106247 -11.202942 -0.177078 0.72029 16.207878 -0.640304 -1.379375 21.216486 1.906876 2.773884 -2.510584 -0.694929 -1.753857 -28.334063 0.072607 -2.422304 6e-06 -0.0 0.0 0.024439 -0.011369 -0.067953 0.035168 0.010562 -0.057894 0.003712 -0.032262 -0.075047 -125.036514 -72.76001 137.766754 31.901587 -55.738308 14.781206 30.33205 0.019443 -0.105355 0.609196 2.395566 12.211795 17.636656 -26.32271 52.411133 -19.466656 -14.395598 29.410376 2e-06 -8.774838 -5e-06 15.865611 -18.315891 6.063602 -0.609778 -1.795654 -3.889327 -4.807096 -11.046816 -2.937848 3e-06 -20.976055 -0.0 -5.019978 -25.033653 -4.031898 4e-06 2e-06 5e-06 -10.634543 -5.686972 -3.565583 10.57328 -17.922962 -3.113896 0.0 -13.821238 2e-06 -0.501771 -31.181641 -4.02703 -11.339346 -59.442379 7.148871 -13.982726 -7.150208 -2.875037 13.77274 -8.401493 -3.218235 0.347723 -34.211639 0.77166 -0.963039 -17.733456 2.621038 -3e-06 3e-06 3e-06 -17.346437 -20.095228 -4.201774 21.757584 -1.638371 3.866436 1e-06 -6.338836 -1e-06 -1.697588 -22.591839 -6.194036 -1e-06 -5e-06 -1e-06 39.0056 -75.740074 156.201202 24.609333 -33.607449 23.46183 79.835899 0.328767 0.237909 7.026639 -6.848137 14.285801 22.18211 -20.37583 49.933346 -16.701828 -16.743517 28.476557 4e-06 -12.690618 -7e-06 16.038853 -18.868528 2.996778 -0.105922 -1.513856 -4.275882 -5.039053 -5.612885 -2.953562 -0.0 -11.020538 -1.4e-05 -6.11131 -15.895395 -3.840516 -2e-06 1e-06 0.0 -10.283382 -5.680302 -4.341841 11.028294 -11.302402 -2.37264 -1.384276 -14.238607 -6.320154 -0.625414 -26.924282 -3.827666 -5.030477 -49.835545 -3.633813 -13.708542 -7.363495 -3.720939 18.141155 -14.052732 -3.242682 7e-06 -18.787287 -2.5e-05 -0.429711 -8.456063 2.555506 1e-06 -0.0 0.0 -15.923563 -20.094513 -5.473597 30.419239 -7.19081 1.735942 0.0 -8.162931 -9e-06 -1.861883 -22.861532 -6.168011 -1e-06 -3e-06 -0.0 -174.465836 -5.305039 -10.696581 5.40685 -0.024225 -0.018666 -76.646889 -2.68255 -7.421476 -4.844114 1.551127 2.110936 -1.0 0.0 0.0 4.481202 -4.562841 -13.334115 5.351473 0.043271 -0.075502 -75.444687 -1.179875 -6.067636 -4.383094 0.768212 1.710801 -1.000003 -1e-06 -0.0 
